<svg id="icons" enable-background="new 0 0 64 64" height="512" viewBox="0 0 64 64" width="512" xmlns="http://www.w3.org/2000/svg"><g><g><path d="m24.96 43.995c1.1 0 2 .899 2 2 0 1.109-.9 2-2 2h-5c1.1 0 2 .899 2 2 0 1.109-.9 2-2 2h-9.65c-.01 0-.01 0-.01 0-4.46-4.19-7.609-9.74-8.78-16h10.44c1.1 0 2 .899 2 2 0 1.109-.9 2-2 2h5c1.1 0 2 .899 2 2 0 1.109-.9 2-2 2z" fill="#d7e9ff"/></g><g><path d="m59.66 25.995h-18.64c-1.1 0-2-.891-2-2 0-1.101.9-2 2-2h-11c-1.1 0-2-.891-2-2 0-1.101.9-2 2-2h6c-1.1 0-2-.891-2-2 0-1.101.9-2 2-2h6c-1.1 0-2-.891-2-2 0-1.101.9-2 2-2h-8c-1.1 0-2-.891-2-2 0-1.101.9-2 2-2h12.91.011c6.699 4.51 11.439 11.68 12.719 20z" fill="#d7e9ff"/></g><g><path d="m63 48.005c0 3.69-1.33 7.07-3.54 9.68l-.01-.01-1.09-6.38 4.58-4.46h.01c.03.38.05.78.05 1.17z" fill="#94c1ff"/></g><g><path d="m60.7 40.045-6.29-.92-2.8-5.66v-.02c2.909.72 5.489 2.29 7.46 4.43.6.67 1.16 1.399 1.64 2.17z" fill="#94c1ff"/></g><g><path d="m35.3 40.035c2.03-3.24 5.271-5.65 9.09-6.59v.02l-2.79 5.66-6.29.92z" fill="#94c1ff"/></g><g><path d="m18.96 41.995c0-1.101-.9-2-2-2h-5c1.1 0 2-.891 2-2 0-1.101-.9-2-2-2h-10.44c-.34-1.78-.52-3.62-.52-5.5 0-16.29 13.21-29.5 29.5-29.5 6.08 0 11.73 1.84 16.43 5h-12.91c-1.1 0-2 .899-2 2 0 1.109.9 2 2 2h8c-1.1 0-2 .899-2 2 0 1.109.9 2 2 2h-6c-1.1 0-2 .899-2 2 0 1.109.9 2 2 2h-6c-1.1 0-2 .899-2 2 0 1.109.9 2 2 2h11c-1.1 0-2 .899-2 2 0 1.109.9 2 2 2h18.64c.22 1.46.34 2.97.34 4.5 0 2.55-.32 5.02-.93 7.38-1.971-2.14-4.551-3.71-7.46-4.43-1.16-.29-2.37-.44-3.61-.44s-2.45.15-3.61.44c-3.819.939-7.06 3.35-9.09 6.59-1.46 2.31-2.3 5.04-2.3 7.97 0 3.68 1.33 7.06 3.55 9.67.4.49.851.96 1.33 1.39-2.36.61-4.83.931-7.38.931-7.81 0-14.91-3.03-20.19-8h9.65c1.1 0 2-.891 2-2 0-1.101-.9-2-2-2h5c1.1 0 2-.891 2-2 0-1.101-.9-2-2-2h-8c1.1-.001 2-.892 2-2.001z" fill="#94c1ff"/></g><g><path d="m36.55 57.675c-2.22-2.61-3.55-5.99-3.55-9.67 0-2.93.84-5.66 2.3-7.97l.01.01 6.29-.92 2.79-5.66v-.02c1.16-.29 2.37-.44 3.61-.44s2.45.15 3.61.44v.02l2.8 5.66 6.29.92h.01c1.26 1.99 2.05 4.31 2.24 6.79h-.01l-4.58 4.46 1.09 6.38.01.01c-1.53 1.811-3.479 3.25-5.7 4.17l-5.76-3.03-5.76 3.029c-1.61-.67-3.09-1.619-4.36-2.79-.48-.429-.93-.899-1.33-1.389zm15.35-4.67 2.409-7.41-6.309-4.59-6.32 4.59 2.42 7.41z" fill="#fff"/></g><g><path d="m33 48.005c0 3.69 1.33 7.07 3.54 9.68l.01-.01 1.09-6.38-4.58-4.46h-.01c-.03.38-.05.78-.05 1.17z" fill="#94c1ff"/></g><g><path d="m54.31 45.595-2.41 7.41h-7.8l-2.42-7.41 6.32-4.59z" fill="#94c1ff"/></g><g><path d="m48 58.825 5.76 3.029c-1.77.74-3.72 1.15-5.76 1.15s-3.98-.41-5.76-1.15z" fill="#94c1ff"/></g></g><g><g><g><path d="m48 64.002c-8.822 0-16-7.178-16-16 0-8.821 7.178-15.998 16-15.998s16 7.177 16 15.998c0 8.822-7.178 16-16 16zm0-29.998c-7.72 0-14 6.279-14 13.998 0 7.72 6.28 14 14 14s14-6.28 14-14c0-7.719-6.28-13.998-14-13.998z" fill="#116fff"/></g><g><path d="m60.695 41.039c-.048 0-.097-.003-.146-.011l-6.288-.916c-.325-.047-.606-.251-.752-.546l-2.799-5.664c-.245-.495-.042-1.095.453-1.34.498-.245 1.097-.041 1.34.453l2.566 5.193 5.769.841c.546.079.925.587.845 1.134-.072.498-.499.856-.988.856z" fill="#116fff"/></g><g><path d="m59.451 58.678c-.479 0-.901-.344-.984-.831l-1.096-6.379c-.056-.324.052-.655.287-.885l4.583-4.465c.396-.384 1.029-.378 1.414.018.386.396.378 1.029-.018 1.414l-4.207 4.099 1.007 5.86c.094.544-.271 1.061-.816 1.154-.057.01-.114.015-.17.015z" fill="#116fff"/></g><g><path d="m42.241 62.852c-.359 0-.707-.194-.887-.535-.257-.488-.068-1.094.421-1.351l5.76-3.025c.291-.152.639-.153.93.001l5.758 3.025c.489.257.678.861.42 1.35-.257.489-.859.679-1.35.42l-5.293-2.781-5.295 2.781c-.148.077-.308.115-.464.115z" fill="#116fff"/></g><g><path d="m36.549 58.678c-.056 0-.113-.005-.17-.015-.545-.094-.91-.61-.816-1.154l1.007-5.86-4.208-4.098c-.396-.386-.404-1.019-.02-1.414.387-.396 1.019-.403 1.414-.02l4.585 4.465c.236.23.344.562.288.886l-1.096 6.379c-.083.487-.506.831-.984.831z" fill="#116fff"/></g><g><path d="m35.304 41.039c-.489 0-.916-.358-.988-.855-.08-.547.299-1.055.845-1.134l5.77-.841 2.566-5.193c.244-.493.844-.697 1.34-.453.495.245.698.845.453 1.34l-2.799 5.664c-.146.295-.427.499-.752.546l-6.289.916c-.05.007-.098.01-.146.01z" fill="#116fff"/></g><g><path d="m51.894 54.006h-7.8c-.434 0-.817-.279-.951-.69l-2.411-7.414c-.134-.412.013-.864.363-1.118l6.312-4.586c.352-.256.826-.256 1.176 0l6.311 4.586c.351.254.497.706.363 1.118l-2.411 7.414c-.135.411-.519.69-.952.69zm-7.074-2h6.347l1.962-6.032-5.135-3.731-5.136 3.731z" fill="#116fff"/></g></g><g><g><path d="m46.934 6.998h-12.913c-.553 0-1-.447-1-1s.447-1 1-1h12.912c.553 0 1 .447 1 1s-.447 1-.999 1z" fill="#116fff"/></g><g><path d="m34.021 10.998c-1.654 0-3-1.346-3-3s1.346-3 3-3c.553 0 1 .447 1 1s-.447 1-1 1c-.552 0-1 .448-1 1s.448 1 1 1c.553 0 1 .447 1 1s-.447 1-1 1z" fill="#116fff"/></g><g><path d="m42.021 10.998h-8c-.553 0-1-.447-1-1s.447-1 1-1h8c.553 0 1 .447 1 1s-.447 1-1 1z" fill="#116fff"/></g><g><path d="m42.021 14.998c-1.654 0-3-1.346-3-3s1.346-3 3-3c.553 0 1 .447 1 1s-.447 1-1 1c-.552 0-1 .448-1 1s.448 1 1 1c.553 0 1 .447 1 1s-.447 1-1 1z" fill="#116fff"/></g><g><path d="m42.021 14.998h-6c-.553 0-1-.447-1-1s.447-1 1-1h6c.553 0 1 .447 1 1s-.447 1-1 1z" fill="#116fff"/></g><g><path d="m36.021 18.998c-1.654 0-3-1.346-3-3s1.346-3 3-3c.553 0 1 .447 1 1s-.447 1-1 1c-.552 0-1 .448-1 1s.448 1 1 1c.553 0 1 .447 1 1s-.447 1-1 1z" fill="#116fff"/></g><g><path d="m36.021 18.998h-6c-.553 0-1-.447-1-1s.447-1 1-1h6c.553 0 1 .447 1 1s-.447 1-1 1z" fill="#116fff"/></g><g><path d="m30.021 22.998c-1.654 0-3-1.346-3-3s1.346-3 3-3c.553 0 1 .447 1 1s-.447 1-1 1c-.552 0-1 .448-1 1s.448 1 1 1c.553 0 1 .447 1 1s-.447 1-1 1z" fill="#116fff"/></g><g><path d="m41.021 22.998h-11c-.553 0-1-.447-1-1s.447-1 1-1h11c.553 0 1 .447 1 1s-.447 1-1 1z" fill="#116fff"/></g><g><path d="m41.021 26.998c-1.654 0-3-1.346-3-3s1.346-3 3-3c.553 0 1 .447 1 1s-.447 1-1 1c-.552 0-1 .448-1 1s.448 1 1 1c.553 0 1 .447 1 1s-.447 1-1 1z" fill="#116fff"/></g><g><path d="m59.658 26.998h-18.637c-.553 0-1-.447-1-1s.447-1 1-1h18.637c.553 0 1 .447 1 1s-.447 1-1 1z" fill="#116fff"/></g></g><g><g><path d="m24.956 44.998h-8c-.553 0-1-.447-1-1s.447-1 1-1h8c.553 0 1 .447 1 1s-.447 1-1 1z" fill="#116fff"/></g><g><path d="m19.956 52.998c-.553 0-1-.447-1-1s.447-1 1-1c.552 0 1-.448 1-1s-.448-1-1-1c-.553 0-1-.447-1-1s.447-1 1-1c1.654 0 3 1.346 3 3s-1.346 3-3 3z" fill="#116fff"/></g><g><path d="m24.956 48.998c-.553 0-1-.447-1-1s.447-1 1-1c.552 0 1-.448 1-1s-.448-1-1-1c-.553 0-1-.447-1-1s.447-1 1-1c1.654 0 3 1.346 3 3s-1.346 3-3 3z" fill="#116fff"/></g><g><path d="m16.956 44.998c-.553 0-1-.447-1-1s.447-1 1-1c.552 0 1-.448 1-1s-.448-1-1-1c-.553 0-1-.447-1-1s.447-1 1-1c1.654 0 3 1.346 3 3s-1.346 3-3 3z" fill="#116fff"/></g><g><path d="m11.956 40.998c-.553 0-1-.447-1-1s.447-1 1-1c.552 0 1-.448 1-1s-.448-1-1-1c-.553 0-1-.447-1-1s.447-1 1-1c1.654 0 3 1.346 3 3s-1.346 3-3 3z" fill="#116fff"/></g><g><path d="m19.956 52.998h-9.654c-.553 0-1-.447-1-1s.447-1 1-1h9.654c.553 0 1 .447 1 1s-.447 1-1 1z" fill="#116fff"/></g><g><path d="m24.956 48.998h-5c-.553 0-1-.447-1-1s.447-1 1-1h5c.553 0 1 .447 1 1s-.447 1-1 1z" fill="#116fff"/></g><g><path d="m16.956 40.998h-5c-.553 0-1-.447-1-1s.447-1 1-1h5c.553 0 1 .447 1 1s-.447 1-1 1z" fill="#116fff"/></g><g><path d="m11.956 36.998h-10.444c-.553 0-1-.447-1-1s.447-1 1-1h10.444c.553 0 1 .447 1 1s-.447 1-1 1z" fill="#116fff"/></g></g><g><path d="m30.5 60.998c-16.817 0-30.5-13.683-30.5-30.5s13.683-30.5 30.5-30.5 30.5 13.683 30.5 30.5c0 2.579-.322 5.144-.959 7.622-.138.535-.683.856-1.218.72-.534-.138-.856-.683-.72-1.218.595-2.315.897-4.712.897-7.124 0-15.715-12.785-28.5-28.5-28.5s-28.5 12.785-28.5 28.5 12.785 28.5 28.5 28.5c2.416 0 4.813-.302 7.126-.898.535-.134 1.081.186 1.219.719.138.535-.185 1.081-.719 1.219-2.477.637-5.042.96-7.626.96z" fill="#116fff"/></g></g></svg>